<svg xmlns="http://www.w3.org/2000/svg" xmlns:xlink="http://www.w3.org/1999/xlink" viewBox="0,0,256,256" width="32px" height="32px"><g fill="#c1c1c1" fill-rule="nonzero" stroke="none" stroke-width="1" stroke-linecap="butt" stroke-linejoin="miter" stroke-miterlimit="10" stroke-dasharray="" stroke-dashoffset="0" font-family="none" font-weight="none" font-size="none" text-anchor="none" style="mix-blend-mode: normal"><g transform="scale(16,16)"><path d="M7.5,1c-3.58393,0 -6.5,2.91607 -6.5,6.5c0,3.58393 2.91607,6.5 6.5,6.5c3.58393,0 6.5,-2.91607 6.5,-6.5c0,-3.58393 -2.91607,-6.5 -6.5,-6.5zM7.5,2c3.04349,0 5.5,2.45651 5.5,5.5c0,1.3858 -0.51335,2.64541 -1.35547,3.61133c-0.00773,-0.76513 -0.06172,-1.69811 -0.24609,-2.50586c-0.40212,-1.76555 -1.10735,-2.79662 -1.38086,-3.32227c-0.27624,-0.53079 -0.53547,-0.96937 -0.83594,-1.30273c-0.30047,-0.33336 -0.7117,-0.60232 -1.18359,-0.53125c-0.2385,0.03541 -0.47278,0.17865 -0.61523,0.36328c-0.14245,0.18463 -0.21284,0.39104 -0.25977,0.61133c-0.09386,0.44058 -0.09177,0.96592 -0.06055,1.63086c0,0.00065 0,0.0013 0,0.00195c-0.00108,-0.0227 0.00423,0.00306 -0.05469,0.07227c-0.05892,0.0692 -0.1696,0.15977 -0.29297,0.23047c-0.12337,0.0707 -0.26061,0.12297 -0.34961,0.14453c-0.03752,0.00909 -0.05552,-0.00184 -0.0625,-0.00586c-0.33497,-0.2074 -0.8075,-0.46814 -1.31641,-0.61523c-0.28011,-0.08096 -0.5687,-0.13729 -0.88672,-0.06445c-0.31802,0.07284 -0.64769,0.37763 -0.72852,0.74219c-0.14129,0.63541 0.14166,1.20238 0.42383,1.71289c0.28216,0.51051 0.62213,0.97852 0.76563,1.21484h-0.00195c0.72743,1.19891 0.71195,1.9051 0.67578,3.02148c-1.90791,-0.86203 -3.23437,-2.77564 -3.23437,-5.00977c0,-3.04349 2.45651,-5.5 5.5,-5.5zM8.16602,4.45117c0.03046,-0.00207 0.09145,-0.00053 0.27148,0.19922c0.19278,0.21389 0.4346,0.59654 0.69336,1.09375c0.34049,0.65435 0.92709,1.47559 1.29297,3.08203c0,0.00065 0,0.0013 0,0.00195c0.24071,1.05457 0.22702,2.6556 0.19727,3.20117c-0.88634,0.61106 -1.9602,0.9707 -3.12109,0.9707c-0.44016,0 -0.86544,-0.05719 -1.27539,-0.1543c0.03193,-1.32783 0.09449,-2.38533 -0.81055,-3.87695c-0.1935,-0.31868 -0.50331,-0.742 -0.74414,-1.17773c-0.23622,-0.42738 -0.34206,-0.84342 -0.31641,-0.99414c0.0494,-0.00538 0.17804,-0.00441 0.35547,0.04688c0.38603,0.11158 0.8974,0.38772 1.16992,0.5625c0.31084,0.19889 0.51592,0.11994 0.7207,0.07031c0.20478,-0.04962 0.41058,-0.13495 0.61133,-0.25c0.20075,-0.11505 0.39598,-0.25823 0.55859,-0.44922c0.16261,-0.19099 0.30609,-0.45233 0.29102,-0.76953c-0.02978,-0.63406 -0.01462,-1.11578 0.04102,-1.37695c0.02395,-0.11241 0.05084,-0.15665 0.06445,-0.17969z"></path></g></g></svg>