<svg xmlns="http://www.w3.org/2000/svg" xmlns:xlink="http://www.w3.org/1999/xlink" viewBox="0,0,256,256" width="32px" height="32px"><g fill="#c1c1c1" fill-rule="nonzero" stroke="none" stroke-width="1" stroke-linecap="butt" stroke-linejoin="miter" stroke-miterlimit="10" stroke-dasharray="" stroke-dashoffset="0" font-family="none" font-weight="none" font-size="none" text-anchor="none" style="mix-blend-mode: normal"><g transform="scale(16,16)"><path d="M4.5,2c-0.82422,0 -1.5,0.67578 -1.5,1.5v9c0,0.82422 0.67578,1.5 1.5,1.5h7c0.82422,0 1.5,-0.67578 1.5,-1.5v-9c0,-0.82422 -0.67578,-1.5 -1.5,-1.5zM4.5,3h7c0.28125,0 0.5,0.21875 0.5,0.5v9c0,0.28125 -0.21875,0.5 -0.5,0.5h-7c-0.28125,0 -0.5,-0.21875 -0.5,-0.5v-9c0,-0.28125 0.21875,-0.5 0.5,-0.5zM7,4c-0.55078,0 -1,0.44922 -1,1c0,0.55078 0.44922,1 1,1c0.55078,0 1,-0.44922 1,-1c0,-0.55078 -0.44922,-1 -1,-1zM7,6c-1.10156,0 -2,0.89844 -2,2h4c0,-1.10156 -0.89844,-2 -2,-2zM10,5v1h1v-1zM10,7v1h1v-1zM5,9v1h6v-1zM5,11v1h6v-1z"></path></g></g></svg>