<svg xmlns="http://www.w3.org/2000/svg" xmlns:xlink="http://www.w3.org/1999/xlink" viewBox="0,0,256,256" width="32px" height="32px"><g fill="#c1c1c1" fill-rule="nonzero" stroke="none" stroke-width="1" stroke-linecap="butt" stroke-linejoin="miter" stroke-miterlimit="10" stroke-dasharray="" stroke-dashoffset="0" font-family="none" font-weight="none" font-size="none" text-anchor="none" style="mix-blend-mode: normal"><g transform="scale(16,16)"><path d="M2.5,2c-0.82422,0 -1.5,0.67578 -1.5,1.5v8c0,0.82422 0.67578,1.5 1.5,1.5h11c0.82422,0 1.5,-0.67578 1.5,-1.5v-8c0,-0.82422 -0.67578,-1.5 -1.5,-1.5zM2.5,3h11c0.03516,0 0.0625,0.01172 0.09375,0.01953l-5.59375,3.87109l-5.59375,-3.87109c0.03125,-0.00781 0.05859,-0.01953 0.09375,-0.01953zM2,3.95313l6,4.15625l6,-4.15625v7.54688c0,0.28125 -0.21875,0.5 -0.5,0.5h-11c-0.28125,0 -0.5,-0.21875 -0.5,-0.5z"></path></g></g></svg>