<svg xmlns="http://www.w3.org/2000/svg" xmlns:xlink="http://www.w3.org/1999/xlink" viewBox="0,0,255.98959,255.98959" width="25px" height="25px"><g fill="#c1c1c1" fill-rule="nonzero" stroke="none" stroke-width="1" stroke-linecap="butt" stroke-linejoin="miter" stroke-miterlimit="10" stroke-dasharray="" stroke-dashoffset="0" font-family="none" font-weight="none" font-size="none" text-anchor="none" style="mix-blend-mode: normal"><g transform="scale(5.12,5.12)"><path d="M25.5,6.5c-3.812,0 -7.302,1.44775 -10,3.84375c-3.124,2.774 -5.5,6.78125 -5.5,12.28125c0,3.12719 0.72634,6.18539 2.08398,8.9375c-0.0597,-0.03224 -0.11915,-0.06824 -0.18945,-0.07422c-2.014,-0.163 -3.97047,0.69192 -5.23047,2.29492c-1.26,1.603 -1.63114,3.70695 -0.99414,5.62695c0.063,0.19 0.23359,0.3248 0.43359,0.3418c0.165,0.013 0.33014,0.01953 0.49414,0.01953c0.67751,0 1.34153,-0.1174 1.96875,-0.33594c0.19478,0.71157 0.49853,1.37454 0.93164,1.9375c0.097,0.126 0.24548,0.19531 0.39648,0.19531c0.071,0 0.14394,-0.01392 0.21094,-0.04492c1.624,-0.751 2.88228,-2.37199 3.36328,-4.33398c0.27119,-1.10371 0.2683,-2.22154 0.02344,-3.24219c0.5718,0.83892 1.19223,1.64734 1.89453,2.39453c2.99,3.181 6.86528,5.1582 10.11328,5.1582c6.097,0 15.5,-8.07092 15.5,-18.79492c0,-4.704 -1.927,-8.94716 -5,-11.91016c-2.763,-2.665 -6.453,-4.29492 -10.5,-4.29492zM25.5,7.5c7.995,0 14.5,6.82108 14.5,15.20508c0,3.434 -1.08561,6.62961 -2.72461,9.34961c-3.396,4.691 -8.45539,5.94531 -10.77539,5.94531c-0.276,0 -0.5,0.224 -0.5,0.5c0,0.276 0.224,0.5 0.5,0.5c1.878,0 4.18997,-0.58845 6.41797,-1.81445c-2.468,2.079 -5.17497,3.31445 -7.41797,3.31445c-5.772,0 -14.5,-7.09692 -14.5,-17.79492c0,-0.311 0.02692,-0.61488 0.04492,-0.92187c0.43,-4.185 4.04958,-9.85311 11.51758,-10.78711c0.274,-0.034 0.46759,-0.28459 0.43359,-0.55859c-0.034,-0.274 -0.28259,-0.46459 -0.55859,-0.43359c-4.243,0.53 -7.32723,2.4992 -9.36523,4.9082c2.537,-4.431 7.15073,-7.41211 12.42773,-7.41211zM25.48633,17.49805c-2.237,0 -4.4752,0.17308 -6.4707,0.51758c-1.402,0.243 -2.63623,0.76814 -3.61523,1.49414c-1.491,1.104 -2.39062,2.66958 -2.39062,4.39258c0,1.279 0.66814,2.43944 1.74414,3.27344c1.056,0.819 2.50266,1.32422 4.09766,1.32422c1.189,0 2.4112,-0.32164 3.5332,-0.93164c0.895,-0.486 1.99856,-0.72852 3.10156,-0.72852c1.103,0 2.20656,0.24252 3.10156,0.72852c1.123,0.61 2.34225,0.93164 3.53125,0.93164c3.221,0 5.8428,-2.06166 5.8418,-4.59766c0,-2.856 -2.46986,-5.27572 -6.00586,-5.88672c-1.9955,-0.3445 -4.23175,-0.51758 -6.46875,-0.51758zM25.48438,18.49805c2.183,0 4.36745,0.16791 6.31445,0.50391c3.015,0.521 5.20313,2.58139 5.20313,4.90039c0,1.984 -2.19081,3.59766 -4.88281,3.59766c-1.034,0 -2.10384,-0.28236 -3.08984,-0.81836c-1.031,-0.56 -2.25597,-0.85742 -3.54297,-0.85742c-1.287,0 -2.51387,0.29742 -3.54687,0.85742c-0.986,0.536 -2.05289,0.81836 -3.08789,0.81836c-0.852,0 -1.65552,-0.16131 -2.35352,-0.44531c-1.507,-0.613 -2.5293,-1.79634 -2.5293,-3.15234c0,-1.331 0.7203,-2.57809 1.9043,-3.49609c0.879,-0.681 2.01383,-1.1823 3.29883,-1.4043c1.947,-0.336 4.1295,-0.50391 6.3125,-0.50391zM17.5,21c-0.28,0 -0.5,0.22 -0.5,0.5c0,0.125 0,0.375 0.375,0.5c0.02,0.02 1.57522,0.29978 1.57422,0.30078c-0.57,0.35 -0.94922,0.97922 -0.94922,1.69922c0,1.1 0.9,2 2,2c1.1,0 2,-0.9 2,-2c0,-0.44 -0.14062,-0.84969 -0.39062,-1.17969c0,0 0.75877,0.17869 0.75977,0.17969c0.25,0 0.51109,0.00008 0.62109,-0.41992c0.07,-0.26 -0.09109,-0.52008 -0.37109,-0.58008c-0.32,-0.1 -4.35914,-0.89 -5.11914,-1zM32.60742,21.01758c-0.06312,-0.01266 -0.12977,-0.01305 -0.19727,0.00195l-5.03516,0.98047c-0.21,0.06 -0.375,0.27 -0.375,0.5c0,0.28 0.22,0.5 0.5,0.5c0.05,-0.01 0.91016,-0.18945 0.91016,-0.18945c-0.25,0.33 -0.39062,0.74945 -0.39062,1.18945c0,1.1 0.9,2 2,2c1.11,0 2,-0.9 2,-2c0,-0.72 -0.37922,-1.34922 -0.94922,-1.69922l1.5293,-0.30078c0.27,-0.06 0.45063,-0.31984 0.39063,-0.58984c-0.0375,-0.2025 -0.19344,-0.35461 -0.38281,-0.39258zM12.42773,32.20117c0.02614,0.04846 0.05353,0.09629 0.08008,0.14453c-0.01027,0.01315 -0.02092,0.02596 -0.03125,0.03906c-0.01407,-0.06155 -0.03276,-0.1223 -0.04883,-0.18359zM11.47656,32.4707c0.391,1.509 0.05327,3.11919 -0.92773,4.36719c-0.981,1.248 -2.51539,1.96559 -4.02539,1.93359c-0.39,-1.51 -0.05327,-3.12114 0.92773,-4.36914c0.981,-1.248 2.46339,-1.94664 4.02539,-1.93164z"></path></g></g></svg>